<?xml version="1.0" encoding="utf-8"?>
<!-- Svg Vector Icons : http://www.onlinewebfonts.com/icon -->
<!DOCTYPE svg PUBLIC "-//W3C//DTD SVG 1.1//EN" "http://www.w3.org/Graphics/SVG/1.1/DTD/svg11.dtd">
<svg version="1.1" xmlns="http://www.w3.org/2000/svg" xmlns:xlink="http://www.w3.org/1999/xlink" x="0px" y="0px" viewBox="0 0 1000 1000" enable-background="new 0 0 1000 1000" xml:space="preserve">
<metadata> Svg Vector Icons : http://www.onlinewebfonts.com/icon </metadata>
<g><g transform="translate(0.000000,512.000000) scale(0.100000,-0.100000)"><path d="M8062.5,4713.7v-306.3h-271.8c-1219.3-1.9-2469.1-392.4-3632.9-1138.9l-134-86.1H2980.7H1937.5V2141.3V1098.1l-111-178c-474.7-756.1-825-1594.4-987.7-2363.9c-78.5-367.5-107.2-637.4-120.6-1081.4l-11.5-417.3H402.4H100v-918.7V-4780h918.7h918.7v918.8v918.7h-310.1h-308.2l11.5,405.8c17.2,549.3,70.8,903.4,216.3,1410.7C1686.8-638,1966.2-6.3,2272.5,506.6l134,225.9h748.4h748.4L5155-1145.2c689.1-1033.6,1257.5-1887.3,1265.2-1900.7c9.6-13.4,346.4,310.1,890,855.6c545.5,543.6,869,880.5,855.6,890c-13.4,7.7-867.1,576.1-1900.7,1265.2L4387.5,1216.8v748.4v748.4l225.9,134c513,306.3,1144.6,585.7,1632.7,725.4c507.2,145.5,861.3,199.1,1410.7,216.3l405.8,11.5v-308.2v-310.1h918.8H9900v918.8V5020h-918.8h-918.8V4713.7z"/></g></g>
</svg>